<svg width="692" height="843" viewBox="0 0 692 843" fill="none" xmlns="http://www.w3.org/2000/svg">
<path d="M341.05 258.31C342.66 258.27 344.28 258.26 345.9 258.26C421.19 258.26 488.5 297.67 488.5 297.67C616.61 231.78 669.12 252.75 669.21 253.75C699.75 327.62 627.66 448.73 627.66 448.73C627.66 448.73 664.92 510.31 651.27 580.18C651.27 582.18 704.83 660.04 620.82 730.92C538.82 800.1 475.28 828.43 351.36 827.75C233.75 828.43 152.98 800.1 70.98 730.92C-13.03 660.04 40.53 582.18 40.53 580.18C26.88 510.3 64.14 448.73 64.14 448.73C64.14 448.73 -7.95004 327.62 22.59 253.75C22.68 252.75 75.19 231.79 203.3 297.67C203.3 297.67 267.75 259.94 341.06 258.31H341.05Z" fill="#FAEADC"/>
<g opacity="0.71">
<path d="M61.99 315.36C52.78 301.49 43.58 287.63 34.37 273.76C32.98 297.57 31.6 321.7 36.28 345.09C40.74 367.38 50.53 388.19 60.23 408.74C62.49 413.52 64.75 418.31 67.45 422.85C79.14 412.66 83.55 396.61 86.69 381.42C90.25 364.17 92.93 346.4 90.19 329C87.45 311.6 78.57 294.45 63.48 285.37C62.44 284.75 61.31 284.15 60.1 284.18C57.83 284.25 56.28 286.44 55.21 288.44C45.94 305.85 44.62 326.66 48.12 346.07C51.61 365.48 59.59 383.78 68.14 401.55C75.91 388.4 77.28 372.58 78.48 357.35C79.94 338.69 81.07 318.58 71.23 302.66C68.95 298.97 63.5 295.52 60.86 298.97C60.23 299.79 59.99 300.84 59.76 301.85C55.51 321.25 54.86 341.43 57.84 361.06C58.49 365.32 62.02 370.89 65.63 368.53C66.81 367.76 67.37 366.34 67.82 365C73.19 349.24 74.39 332.07 71.27 315.72" fill="#FAEADC"/>
<path d="M69.79 310.81C60.58 296.94 51.38 283.08 42.17 269.21C37.15 261.64 25.88 264.7 25.35 273.77C23.75 301.11 22.52 328.78 29.44 355.57C32.71 368.22 37.55 380.39 42.79 392.34C48.03 404.29 53.17 416.26 59.67 427.42C62.71 432.64 69.58 433.11 73.85 429.25C88.71 415.78 93.37 395.36 96.87 376.42C100.78 355.25 102.81 332.54 95.06 311.96C91.66 302.94 86.91 294.55 80.29 287.49C74.24 281.03 63.69 271.61 54.29 276.7C45.81 281.29 42.14 294.64 40.05 303.35C37.63 313.43 36.86 324 37.62 334.33C39.49 359.8 49.4399 383.37 60.3599 406.14C63.3399 412.35 72.79 411.69 75.95 406.14C85.64 389.1 86.8599 369.07 88.0499 349.91C89.1499 332.27 89.17 309.46 76.84 295.22C70.51 287.91 58.2 285.46 52.72 295.14C50.44 299.17 50 304.43 49.29 308.93C48.37 314.79 47.67 320.69 47.3 326.61C46.64 337.17 47.06 347.76 48.42 358.25C49.57 367.11 53.5 378.64 64.57 378.08C77.29 377.44 79.4 359.12 80.79 349.46C82.53 337.33 82.17 325.41 80 313.36C79.13 308.56 73.29 305.85 68.9 307.06C63.85 308.45 61.73 313.35 62.6 318.16C63.99 325.87 64.29 333.74 63.67 341.55C63.39 345.06 62.8599 348.51 62.1099 351.95C61.7199 353.76 61.28 355.56 60.79 357.34C60.46 358.53 60.11 359.71 59.73 360.89C58.84 363.1 58.94 363.23 60.03 361.26L64.59 360.03L67.65 361.7L66.95 360.49C66.95 359.92 66.7 359.25 66.57 358.71C65.97 356.11 65.88 353.28 65.65 350.62C65.19 345.2 64.99 339.75 65.07 334.3C65.15 329.18 65.46 324.05 66.02 318.96C66.32 316.26 66.72 313.58 67.19 310.9C67.41 309.64 67.65 308.38 67.9 307.12C68.02 306.49 68.15 305.86 68.29 305.24C68.76 303.83 68.44 303.92 67.31 305.52L62.75 306.75C65.49 306.43 68.8099 320.53 69.3299 323.28C70.8799 331.44 70.5699 340 70.1099 348.25C69.1899 364.58 68.65 382.48 60.37 397.04H75.96C61.6 367.1 47.36 331.53 60.45 298.54C61.09 296.92 61.83 295.34 62.65 293.79C62.83 293.44 63.74 292.23 63.74 291.83L58.95 293.2L60.23 294C62.8 296.36 65.64 298.18 68.04 300.81C72.55 305.76 75.96 311.89 78.19 318.19C83.93 334.46 82.9 352.08 79.98 368.83C77.06 385.58 74.17 404.65 61.1 416.49L75.28 418.32C69.24 407.94 64.4 396.74 59.52 385.78C54.64 374.82 49.98 362.82 46.87 350.78C40.37 325.61 41.93 299.47 43.43 273.78L26.61 278.34C35.82 292.21 45.02 306.07 54.23 319.94C60.63 329.58 76.27 320.54 69.82 310.83L69.79 310.81Z" fill="#B06B6B"/>
</g>
<g opacity="0.71">
<path d="M643.43 319.28C646.01 305.15 648.59 291.02 651.18 276.88C629.35 293.4 612.43 316.96 606.13 343.61C599.83 370.25 604.79 399.85 621.39 421.62C648.42 377.68 659.78 324.32 652.99 273.18C647.93 277.6 644.54 283.57 641.28 289.44C631.66 306.78 622.32 324.51 617.24 343.68C612.16 362.85 611.6 383.79 619.32 402.06C634.19 369.69 645.95 335.88 654.39 301.27C647.8 306.85 641.12 312.51 636.18 319.58C626.07 334.04 624.3 352.72 625.02 370.35" fill="#FAEADC"/>
<path d="M652.13 321.68C654.71 307.55 657.29 293.42 659.88 279.28C660.54 275.66 659.73 272.1 656.65 269.79C654.03 267.84 649.48 266.89 646.62 269.08C623.24 287 604.69 311.47 597.61 340.44C590.5 369.52 595.51 401.96 613.59 426.17C617.58 431.51 625.37 432.42 629.18 426.17C656.9 380.72 668.82 326.01 662.01 273.17C661.03 265.57 652.8 261.06 646.6 266.79C637.62 275.08 632.19 286.91 626.59 297.57C620.99 308.23 615.44 319.98 611.41 331.81C603.49 355.02 601.19 381.33 610.61 404.45C611.99 407.84 614.23 410.45 618.11 410.92C621.39 411.31 625.61 409.88 627.1 406.61C642.26 373.46 654.39 339.06 663.08 303.66C665.33 294.5 654.73 289.17 647.99 294.88C636.61 304.51 626.77 314.58 621.34 328.73C616.3 341.88 615.46 356.41 615.97 370.35C616.39 381.93 634.45 381.99 634.02 370.35C633.59 358.42 634.09 346.4 638.18 335.06C642.27 323.72 651.55 315.43 660.75 307.64C655.72 304.71 650.69 301.78 645.66 298.86C637.35 332.72 626 365.78 611.5 397.49C617 398.21 622.5 398.93 628 399.65C619.65 379.15 621.79 357.16 628.8 336.6C632.34 326.23 637.07 316.36 642.16 306.68C647.01 297.45 651.58 286.72 659.35 279.55L643.94 273.17C650.38 323.12 639.82 374.03 613.58 417.06H629.17C613.88 396.58 608.95 370.01 615.01 345.24C620.91 321.12 636.12 299.7 655.73 284.67C651.31 281.27 646.89 277.87 642.47 274.48C639.89 288.61 637.31 302.74 634.72 316.88C633.84 321.67 636.03 326.61 641.02 327.98C645.4 329.18 651.24 326.5 652.12 321.68H652.13Z" fill="#B06B6B"/>
</g>
<path d="M188.6 636.153C191.795 621.135 166.148 602.954 131.316 595.544C96.4841 588.134 65.6575 594.301 62.4627 609.318C59.2679 624.336 84.9147 642.517 119.747 649.927C154.578 657.337 185.405 651.17 188.6 636.153Z" fill="#F3B9B6"/>
<path d="M569.396 650.727C604.228 643.317 629.874 625.136 626.68 610.118C623.485 595.101 592.658 588.934 557.826 596.344C522.994 603.754 497.348 621.935 500.542 636.953C503.737 651.97 534.564 658.137 569.396 650.727Z" fill="#F3B9B6"/>
<path d="M441.46 598.34C439.1 566.76 456.62 537.46 484.09 525.87C515.86 512.46 554.89 525.3 573.93 557.23" fill="#E5C7B1"/>
<path d="M251.61 598.34C253.97 566.76 236.45 537.46 208.98 525.87C177.21 512.46 138.18 525.3 119.14 557.23" fill="#E5C7B1"/>
<path d="M341.05 258.31C342.66 258.27 344.28 258.26 345.9 258.26C421.19 258.26 488.5 297.67 488.5 297.67C616.61 231.78 669.12 252.75 669.21 253.75C699.75 327.62 627.66 448.73 627.66 448.73C627.66 448.73 664.92 510.31 651.27 580.18C651.27 582.18 704.83 660.04 620.82 730.92C538.82 800.1 475.28 828.43 351.36 827.75C233.75 828.43 152.98 800.1 70.98 730.92C-13.03 660.04 40.53 582.18 40.53 580.18C26.88 510.3 64.14 448.73 64.14 448.73C64.14 448.73 -7.95004 327.62 22.59 253.75C22.68 252.75 75.19 231.79 203.3 297.67C203.3 297.67 267.75 259.94 341.06 258.31H341.05Z" stroke="#8A5D51" stroke-width="28.89" stroke-linejoin="round"/>
<path d="M118.72 557.95C140.15 549.54 163.39 545.81 186.38 547.07C194.17 547.5 202 548.51 209.32 551.21C228.62 558.33 247.21 576.49 252.24 601.19" fill="#4C3934"/>
<path d="M575.85 557.95C554.42 549.54 531.18 545.81 508.19 547.07C500.4 547.5 492.57 548.51 485.25 551.21C465.95 558.33 447.36 576.49 442.33 601.19" fill="#4C3934"/>
<path d="M347.29 670.97C368.321 670.97 385.37 648.387 385.37 620.53C385.37 592.673 368.321 570.09 347.29 570.09C326.259 570.09 309.21 592.673 309.21 620.53C309.21 648.387 326.259 670.97 347.29 670.97Z" fill="#E8412E"/>
<path d="M361.7 599.02C357.75 607.89 339.59 605.34 334.63 603.13C329.67 600.92 327.22 596.53 331.16 587.66C335.1 578.79 344.88 574.11 350.09 575.65C355.3 577.19 365.64 590.15 361.7 599.02Z" fill="white"/>
<path d="M64.13 448.72C119.47 403.91 130.53 302.39 32.51 255.12" stroke="#8A5D51" stroke-width="28.89" stroke-linejoin="round"/>
<path d="M626.46 448.72C571.12 403.91 560.06 302.39 658.08 255.12" stroke="#8A5D51" stroke-width="28.89" stroke-linejoin="round"/>
<path d="M345.89 207.78C399.058 207.78 442.16 164.678 442.16 111.51C442.16 58.3415 399.058 15.24 345.89 15.24C292.722 15.24 249.62 58.3415 249.62 111.51C249.62 164.678 292.722 207.78 345.89 207.78Z" fill="#E8412E" stroke="#7C1B17" stroke-width="28.89" stroke-linejoin="round"/>
<path d="M346.74 131.48C351.07 161.94 354.45 193.11 356.85 223.78C358.08 239.12 361.82 254.47 359.74 269.93C357.87 285.74 354.34 301.74 346.74 316.08H343.85C341.7 312.23 340.13 308.39 338.69 304.54C333.42 289.65 330.37 274.06 330.24 258.39C330.31 246.8 332.94 235.3 333.73 223.78C334.83 209.3 336.45 192.06 338.06 177.63C339.83 162.25 341.55 146.86 343.84 131.48H346.73H346.74Z" fill="#4C3934"/>
<path d="M408.02 87.63C393.74 74.55 378.87 62.12 360.57 55.45C342.8 48.8 323.17 47.58 304.69 52.91C307.34 49.99 310.59 47.59 314.01 45.61C349.89 26.12 396.51 50.02 408.02 87.63Z" fill="white"/>
</svg>
